<mxfile host="app.diagrams.net" modified="2023-06-25T21:23:30.611Z" agent="Mozilla/5.0 (Macintosh; Intel Mac OS X 10_15_7) AppleWebKit/537.36 (KHTML, like Gecko) Chrome/114.0.0.0 Safari/537.36" version="21.3.2" etag="e9anejSnD68IVRznqrQP" type="github">
  <diagram name="Page-1" id="ChJXubemp8RFGHCHmPLh">
    <mxGraphModel dx="1471" dy="1751" grid="1" gridSize="10" guides="1" tooltips="1" connect="1" arrows="1" fold="1" page="1" pageScale="1" pageWidth="827" pageHeight="1169" background="none" math="0" shadow="0">
      <root>
        <mxCell id="0" />
        <mxCell id="1" parent="0" />
        <mxCell id="TOOFElUS-FBpNHro3T_S-3" style="edgeStyle=orthogonalEdgeStyle;rounded=0;orthogonalLoop=1;jettySize=auto;html=1;entryX=0;entryY=0.5;entryDx=0;entryDy=0;" parent="1" source="TOOFElUS-FBpNHro3T_S-1" edge="1">
          <mxGeometry relative="1" as="geometry">
            <mxPoint x="440" y="280" as="targetPoint" />
            <Array as="points">
              <mxPoint x="441" y="345" />
              <mxPoint x="441" y="280" />
            </Array>
          </mxGeometry>
        </mxCell>
        <mxCell id="TOOFElUS-FBpNHro3T_S-1" value="Homepage for vistors" style="rounded=0;whiteSpace=wrap;html=1;" parent="1" vertex="1">
          <mxGeometry x="260" y="310" width="130" height="70" as="geometry" />
        </mxCell>
        <mxCell id="TOOFElUS-FBpNHro3T_S-16" style="edgeStyle=orthogonalEdgeStyle;rounded=0;orthogonalLoop=1;jettySize=auto;html=1;entryX=0;entryY=0.5;entryDx=0;entryDy=0;" parent="1" source="TOOFElUS-FBpNHro3T_S-2" target="TOOFElUS-FBpNHro3T_S-15" edge="1">
          <mxGeometry relative="1" as="geometry">
            <Array as="points">
              <mxPoint x="510" y="-50" />
            </Array>
          </mxGeometry>
        </mxCell>
        <mxCell id="QB0tpHgq6-PN-OitbI8M-5" style="edgeStyle=orthogonalEdgeStyle;rounded=0;orthogonalLoop=1;jettySize=auto;html=1;entryX=1;entryY=0.5;entryDx=0;entryDy=0;" parent="1" source="TOOFElUS-FBpNHro3T_S-2" target="TOOFElUS-FBpNHro3T_S-9" edge="1">
          <mxGeometry relative="1" as="geometry">
            <Array as="points">
              <mxPoint x="410" y="95" />
            </Array>
          </mxGeometry>
        </mxCell>
        <mxCell id="-EVmvfpQ7ZupU5zq52yI-13" style="edgeStyle=orthogonalEdgeStyle;rounded=0;orthogonalLoop=1;jettySize=auto;html=1;entryX=0.5;entryY=0;entryDx=0;entryDy=0;" parent="1" source="TOOFElUS-FBpNHro3T_S-2" target="TOOFElUS-FBpNHro3T_S-4" edge="1">
          <mxGeometry relative="1" as="geometry" />
        </mxCell>
        <mxCell id="TOOFElUS-FBpNHro3T_S-2" value="Login" style="rounded=0;whiteSpace=wrap;html=1;" parent="1" vertex="1">
          <mxGeometry x="430" y="220" width="120" height="60" as="geometry" />
        </mxCell>
        <mxCell id="-EVmvfpQ7ZupU5zq52yI-12" style="edgeStyle=orthogonalEdgeStyle;rounded=0;orthogonalLoop=1;jettySize=auto;html=1;entryX=1;entryY=0.5;entryDx=0;entryDy=0;" parent="1" source="TOOFElUS-FBpNHro3T_S-4" target="TOOFElUS-FBpNHro3T_S-2" edge="1">
          <mxGeometry relative="1" as="geometry">
            <Array as="points">
              <mxPoint x="710" y="410" />
              <mxPoint x="710" y="250" />
            </Array>
          </mxGeometry>
        </mxCell>
        <mxCell id="TOOFElUS-FBpNHro3T_S-4" value="Signup" style="rounded=0;whiteSpace=wrap;html=1;" parent="1" vertex="1">
          <mxGeometry x="430" y="380" width="120" height="60" as="geometry" />
        </mxCell>
        <mxCell id="TOOFElUS-FBpNHro3T_S-6" value="If user doesn&#39;t have a account yet" style="text;html=1;strokeColor=none;fillColor=none;align=center;verticalAlign=middle;whiteSpace=wrap;rounded=0;" parent="1" vertex="1">
          <mxGeometry x="510" y="325" width="130" height="30" as="geometry" />
        </mxCell>
        <mxCell id="TOOFElUS-FBpNHro3T_S-12" style="edgeStyle=orthogonalEdgeStyle;rounded=0;orthogonalLoop=1;jettySize=auto;html=1;entryX=1;entryY=0.5;entryDx=0;entryDy=0;" parent="1" source="TOOFElUS-FBpNHro3T_S-9" target="TOOFElUS-FBpNHro3T_S-11" edge="1">
          <mxGeometry relative="1" as="geometry" />
        </mxCell>
        <mxCell id="-EVmvfpQ7ZupU5zq52yI-11" style="edgeStyle=orthogonalEdgeStyle;rounded=0;orthogonalLoop=1;jettySize=auto;html=1;entryX=0.5;entryY=1;entryDx=0;entryDy=0;" parent="1" target="-EVmvfpQ7ZupU5zq52yI-7" edge="1">
          <mxGeometry relative="1" as="geometry">
            <mxPoint x="275" y="70" as="sourcePoint" />
          </mxGeometry>
        </mxCell>
        <mxCell id="lQMvvRKDLv_ckQjSCARD-42" style="edgeStyle=orthogonalEdgeStyle;rounded=0;orthogonalLoop=1;jettySize=auto;html=1;" edge="1" parent="1" source="TOOFElUS-FBpNHro3T_S-9" target="lQMvvRKDLv_ckQjSCARD-37">
          <mxGeometry relative="1" as="geometry">
            <Array as="points">
              <mxPoint x="150" y="450" />
              <mxPoint x="-20" y="450" />
            </Array>
          </mxGeometry>
        </mxCell>
        <mxCell id="lQMvvRKDLv_ckQjSCARD-43" style="edgeStyle=orthogonalEdgeStyle;rounded=0;orthogonalLoop=1;jettySize=auto;html=1;" edge="1" parent="1" source="TOOFElUS-FBpNHro3T_S-9" target="lQMvvRKDLv_ckQjSCARD-40">
          <mxGeometry relative="1" as="geometry">
            <Array as="points">
              <mxPoint x="150" y="450" />
              <mxPoint x="280" y="450" />
            </Array>
          </mxGeometry>
        </mxCell>
        <mxCell id="lQMvvRKDLv_ckQjSCARD-44" style="edgeStyle=orthogonalEdgeStyle;rounded=0;orthogonalLoop=1;jettySize=auto;html=1;entryX=0.671;entryY=-0.067;entryDx=0;entryDy=0;entryPerimeter=0;" edge="1" parent="1" source="TOOFElUS-FBpNHro3T_S-9" target="lQMvvRKDLv_ckQjSCARD-38">
          <mxGeometry relative="1" as="geometry">
            <Array as="points">
              <mxPoint x="151" y="280" />
              <mxPoint x="151" y="280" />
            </Array>
          </mxGeometry>
        </mxCell>
        <mxCell id="TOOFElUS-FBpNHro3T_S-9" value="&lt;font style=&quot;font-size: 18px;&quot;&gt;Homepage for Users with all features&lt;/font&gt;" style="rounded=0;whiteSpace=wrap;html=1;" parent="1" vertex="1">
          <mxGeometry x="150" y="40" width="220" height="150" as="geometry" />
        </mxCell>
        <mxCell id="NwQ8OJnY-yA1p-ciKud6-1" style="edgeStyle=orthogonalEdgeStyle;rounded=0;orthogonalLoop=1;jettySize=auto;html=1;exitX=0;exitY=0.5;exitDx=0;exitDy=0;entryX=1;entryY=0.5;entryDx=0;entryDy=0;" parent="1" source="TOOFElUS-FBpNHro3T_S-11" target="TOOFElUS-FBpNHro3T_S-14" edge="1">
          <mxGeometry relative="1" as="geometry" />
        </mxCell>
        <mxCell id="NwQ8OJnY-yA1p-ciKud6-5" style="edgeStyle=orthogonalEdgeStyle;rounded=0;orthogonalLoop=1;jettySize=auto;html=1;" parent="1" source="TOOFElUS-FBpNHro3T_S-11" edge="1">
          <mxGeometry relative="1" as="geometry">
            <mxPoint x="-60" y="330" as="targetPoint" />
            <Array as="points">
              <mxPoint x="-20" y="320" />
              <mxPoint x="-59" y="320" />
            </Array>
          </mxGeometry>
        </mxCell>
        <mxCell id="TOOFElUS-FBpNHro3T_S-11" value="All Posts" style="rounded=0;whiteSpace=wrap;html=1;" parent="1" vertex="1">
          <mxGeometry x="-80" y="235" width="120" height="60" as="geometry" />
        </mxCell>
        <mxCell id="TOOFElUS-FBpNHro3T_S-13" value="Scroll down" style="text;html=1;strokeColor=none;fillColor=none;align=center;verticalAlign=middle;whiteSpace=wrap;rounded=0;" parent="1" vertex="1">
          <mxGeometry x="50" y="160" width="50" height="30" as="geometry" />
        </mxCell>
        <mxCell id="NwQ8OJnY-yA1p-ciKud6-4" style="edgeStyle=orthogonalEdgeStyle;rounded=0;orthogonalLoop=1;jettySize=auto;html=1;" parent="1" source="TOOFElUS-FBpNHro3T_S-14" edge="1">
          <mxGeometry relative="1" as="geometry">
            <mxPoint x="-70" y="330" as="targetPoint" />
            <Array as="points">
              <mxPoint x="-120" y="320" />
              <mxPoint x="-69" y="320" />
            </Array>
          </mxGeometry>
        </mxCell>
        <mxCell id="TOOFElUS-FBpNHro3T_S-14" value="Filter&amp;nbsp;" style="rounded=0;whiteSpace=wrap;html=1;" parent="1" vertex="1">
          <mxGeometry x="-140" y="240" width="40" height="60" as="geometry" />
        </mxCell>
        <mxCell id="lQMvvRKDLv_ckQjSCARD-25" style="edgeStyle=orthogonalEdgeStyle;rounded=0;orthogonalLoop=1;jettySize=auto;html=1;" edge="1" parent="1" source="TOOFElUS-FBpNHro3T_S-15" target="lQMvvRKDLv_ckQjSCARD-24">
          <mxGeometry relative="1" as="geometry" />
        </mxCell>
        <mxCell id="TOOFElUS-FBpNHro3T_S-15" value="Forgot Password" style="rounded=0;whiteSpace=wrap;html=1;" parent="1" vertex="1">
          <mxGeometry x="570" y="-80" width="120" height="60" as="geometry" />
        </mxCell>
        <mxCell id="NwQ8OJnY-yA1p-ciKud6-2" value="sorting the All Posts Page or hiding certain posts from the posts flow according to the Filter applied" style="rounded=0;whiteSpace=wrap;html=1;" parent="1" vertex="1">
          <mxGeometry x="-160" y="330" width="190" height="80" as="geometry" />
        </mxCell>
        <mxCell id="NwQ8OJnY-yA1p-ciKud6-3" value="All on the same page" style="text;html=1;strokeColor=none;fillColor=none;align=center;verticalAlign=middle;whiteSpace=wrap;rounded=0;" parent="1" vertex="1">
          <mxGeometry x="-280" y="205" width="140" height="30" as="geometry" />
        </mxCell>
        <mxCell id="NwQ8OJnY-yA1p-ciKud6-11" style="edgeStyle=orthogonalEdgeStyle;rounded=0;orthogonalLoop=1;jettySize=auto;html=1;exitX=1;exitY=0.5;exitDx=0;exitDy=0;entryX=0;entryY=0.5;entryDx=0;entryDy=0;" parent="1" source="NwQ8OJnY-yA1p-ciKud6-6" target="NwQ8OJnY-yA1p-ciKud6-10" edge="1">
          <mxGeometry relative="1" as="geometry" />
        </mxCell>
        <mxCell id="NwQ8OJnY-yA1p-ciKud6-13" style="edgeStyle=orthogonalEdgeStyle;rounded=0;orthogonalLoop=1;jettySize=auto;html=1;exitX=0.5;exitY=0;exitDx=0;exitDy=0;entryX=0.5;entryY=1;entryDx=0;entryDy=0;" parent="1" source="NwQ8OJnY-yA1p-ciKud6-6" target="NwQ8OJnY-yA1p-ciKud6-12" edge="1">
          <mxGeometry relative="1" as="geometry" />
        </mxCell>
        <mxCell id="NwQ8OJnY-yA1p-ciKud6-6" value="Contact Page" style="rounded=0;whiteSpace=wrap;html=1;" parent="1" vertex="1">
          <mxGeometry x="340" y="-210" width="120" height="60" as="geometry" />
        </mxCell>
        <mxCell id="NwQ8OJnY-yA1p-ciKud6-8" value="&lt;b style=&quot;font-size: 16px;&quot;&gt;START&lt;/b&gt;" style="text;html=1;strokeColor=none;fillColor=none;align=center;verticalAlign=middle;whiteSpace=wrap;rounded=0;" parent="1" vertex="1">
          <mxGeometry x="290" y="280" width="60" height="30" as="geometry" />
        </mxCell>
        <mxCell id="NwQ8OJnY-yA1p-ciKud6-10" value="Ticket Box" style="rounded=0;whiteSpace=wrap;html=1;" parent="1" vertex="1">
          <mxGeometry x="540" y="-280" width="120" height="60" as="geometry" />
        </mxCell>
        <mxCell id="NwQ8OJnY-yA1p-ciKud6-12" value="FAQ" style="rounded=0;whiteSpace=wrap;html=1;" parent="1" vertex="1">
          <mxGeometry x="310" y="-350" width="120" height="60" as="geometry" />
        </mxCell>
        <mxCell id="NwQ8OJnY-yA1p-ciKud6-14" value="Common asked Questions with Answers" style="text;html=1;strokeColor=none;fillColor=none;align=center;verticalAlign=middle;whiteSpace=wrap;rounded=0;" parent="1" vertex="1">
          <mxGeometry x="300" y="-380" width="150" height="30" as="geometry" />
        </mxCell>
        <mxCell id="QB0tpHgq6-PN-OitbI8M-1" style="edgeStyle=orthogonalEdgeStyle;rounded=0;orthogonalLoop=1;jettySize=auto;html=1;entryX=1;entryY=0.5;entryDx=0;entryDy=0;" parent="1" target="NwQ8OJnY-yA1p-ciKud6-18" edge="1">
          <mxGeometry relative="1" as="geometry">
            <mxPoint x="-5" y="-200" as="sourcePoint" />
            <Array as="points">
              <mxPoint x="-5" y="-220" />
              <mxPoint x="-62" y="-220" />
              <mxPoint x="-62" y="-290" />
            </Array>
          </mxGeometry>
        </mxCell>
        <mxCell id="QB0tpHgq6-PN-OitbI8M-8" style="edgeStyle=orthogonalEdgeStyle;rounded=0;orthogonalLoop=1;jettySize=auto;html=1;exitX=0;exitY=0.5;exitDx=0;exitDy=0;entryX=1;entryY=0.5;entryDx=0;entryDy=0;" parent="1" source="NwQ8OJnY-yA1p-ciKud6-16" target="QB0tpHgq6-PN-OitbI8M-3" edge="1">
          <mxGeometry relative="1" as="geometry" />
        </mxCell>
        <mxCell id="NwQ8OJnY-yA1p-ciKud6-16" value="Profile Page" style="rounded=0;whiteSpace=wrap;html=1;" parent="1" vertex="1">
          <mxGeometry x="-10" y="-235" width="120" height="60" as="geometry" />
        </mxCell>
        <mxCell id="NwQ8OJnY-yA1p-ciKud6-18" value="User Posts" style="rounded=0;whiteSpace=wrap;html=1;" parent="1" vertex="1">
          <mxGeometry x="-330" y="-320" width="120" height="60" as="geometry" />
        </mxCell>
        <mxCell id="QB0tpHgq6-PN-OitbI8M-2" value="Scroll down" style="text;html=1;strokeColor=none;fillColor=none;align=center;verticalAlign=middle;whiteSpace=wrap;rounded=0;" parent="1" vertex="1">
          <mxGeometry x="-180" y="-290" width="80" height="30" as="geometry" />
        </mxCell>
        <mxCell id="QB0tpHgq6-PN-OitbI8M-3" value="edit profile page" style="rounded=0;whiteSpace=wrap;html=1;" parent="1" vertex="1">
          <mxGeometry x="-320" y="-80" width="120" height="60" as="geometry" />
        </mxCell>
        <mxCell id="QB0tpHgq6-PN-OitbI8M-6" value="The same view as all users, difference is that instead of the following button there is the edit profile button" style="text;html=1;strokeColor=none;fillColor=none;align=center;verticalAlign=middle;whiteSpace=wrap;rounded=0;" parent="1" vertex="1">
          <mxGeometry x="-20" y="-160" width="160" height="30" as="geometry" />
        </mxCell>
        <mxCell id="QB0tpHgq6-PN-OitbI8M-9" value="Edit the public profile&amp;nbsp;" style="text;html=1;strokeColor=none;fillColor=none;align=center;verticalAlign=middle;whiteSpace=wrap;rounded=0;" parent="1" vertex="1">
          <mxGeometry x="-200" y="-110" width="90" height="30" as="geometry" />
        </mxCell>
        <mxCell id="lQMvvRKDLv_ckQjSCARD-36" style="edgeStyle=orthogonalEdgeStyle;rounded=0;orthogonalLoop=1;jettySize=auto;html=1;entryX=0.917;entryY=0.042;entryDx=0;entryDy=0;entryPerimeter=0;" edge="1" parent="1" source="-EVmvfpQ7ZupU5zq52yI-1" target="TOOFElUS-FBpNHro3T_S-11">
          <mxGeometry relative="1" as="geometry" />
        </mxCell>
        <mxCell id="-EVmvfpQ7ZupU5zq52yI-1" value="Follow Suggestions" style="rounded=0;whiteSpace=wrap;html=1;" parent="1" vertex="1">
          <mxGeometry x="-10" y="65" width="80" height="60" as="geometry" />
        </mxCell>
        <mxCell id="lQMvvRKDLv_ckQjSCARD-35" style="edgeStyle=orthogonalEdgeStyle;rounded=0;orthogonalLoop=1;jettySize=auto;html=1;" edge="1" parent="1" source="-EVmvfpQ7ZupU5zq52yI-2">
          <mxGeometry relative="1" as="geometry">
            <mxPoint x="-75" y="230" as="targetPoint" />
          </mxGeometry>
        </mxCell>
        <mxCell id="-EVmvfpQ7ZupU5zq52yI-2" value="create post form" style="rounded=0;whiteSpace=wrap;html=1;" parent="1" vertex="1">
          <mxGeometry x="-120" y="65" width="90" height="60" as="geometry" />
        </mxCell>
        <mxCell id="-EVmvfpQ7ZupU5zq52yI-8" style="edgeStyle=orthogonalEdgeStyle;rounded=0;orthogonalLoop=1;jettySize=auto;html=1;entryX=1;entryY=0.5;entryDx=0;entryDy=0;" parent="1" source="-EVmvfpQ7ZupU5zq52yI-7" target="NwQ8OJnY-yA1p-ciKud6-16" edge="1">
          <mxGeometry relative="1" as="geometry">
            <Array as="points">
              <mxPoint x="275" y="-70" />
              <mxPoint x="160" y="-70" />
              <mxPoint x="160" y="-205" />
            </Array>
          </mxGeometry>
        </mxCell>
        <mxCell id="-EVmvfpQ7ZupU5zq52yI-9" style="edgeStyle=orthogonalEdgeStyle;rounded=0;orthogonalLoop=1;jettySize=auto;html=1;" parent="1" source="-EVmvfpQ7ZupU5zq52yI-7" target="NwQ8OJnY-yA1p-ciKud6-6" edge="1">
          <mxGeometry relative="1" as="geometry" />
        </mxCell>
        <mxCell id="-EVmvfpQ7ZupU5zq52yI-14" style="edgeStyle=orthogonalEdgeStyle;rounded=0;orthogonalLoop=1;jettySize=auto;html=1;exitX=0.25;exitY=1;exitDx=0;exitDy=0;entryX=0.25;entryY=0;entryDx=0;entryDy=0;" parent="1" source="-EVmvfpQ7ZupU5zq52yI-7" target="TOOFElUS-FBpNHro3T_S-9" edge="1">
          <mxGeometry relative="1" as="geometry" />
        </mxCell>
        <mxCell id="lQMvvRKDLv_ckQjSCARD-2" style="edgeStyle=orthogonalEdgeStyle;rounded=0;orthogonalLoop=1;jettySize=auto;html=1;" edge="1" parent="1" source="-EVmvfpQ7ZupU5zq52yI-7" target="lQMvvRKDLv_ckQjSCARD-1">
          <mxGeometry relative="1" as="geometry" />
        </mxCell>
        <mxCell id="-EVmvfpQ7ZupU5zq52yI-7" value="Navbar / always on top" style="rounded=0;whiteSpace=wrap;html=1;" parent="1" vertex="1">
          <mxGeometry x="210" y="-60" width="130" height="60" as="geometry" />
        </mxCell>
        <mxCell id="lQMvvRKDLv_ckQjSCARD-10" style="edgeStyle=orthogonalEdgeStyle;rounded=0;orthogonalLoop=1;jettySize=auto;html=1;" edge="1" parent="1" source="lQMvvRKDLv_ckQjSCARD-1" target="lQMvvRKDLv_ckQjSCARD-8">
          <mxGeometry relative="1" as="geometry">
            <mxPoint x="160" y="-680" as="targetPoint" />
            <Array as="points">
              <mxPoint x="150" y="-650" />
              <mxPoint x="150" y="-650" />
            </Array>
          </mxGeometry>
        </mxCell>
        <mxCell id="lQMvvRKDLv_ckQjSCARD-14" style="edgeStyle=orthogonalEdgeStyle;rounded=0;orthogonalLoop=1;jettySize=auto;html=1;entryX=0.25;entryY=1;entryDx=0;entryDy=0;" edge="1" parent="1" source="lQMvvRKDLv_ckQjSCARD-1" target="lQMvvRKDLv_ckQjSCARD-6">
          <mxGeometry relative="1" as="geometry">
            <Array as="points">
              <mxPoint x="20" y="-520" />
            </Array>
          </mxGeometry>
        </mxCell>
        <mxCell id="lQMvvRKDLv_ckQjSCARD-15" style="edgeStyle=orthogonalEdgeStyle;rounded=0;orthogonalLoop=1;jettySize=auto;html=1;entryX=1;entryY=0.5;entryDx=0;entryDy=0;" edge="1" parent="1" source="lQMvvRKDLv_ckQjSCARD-1" target="lQMvvRKDLv_ckQjSCARD-4">
          <mxGeometry relative="1" as="geometry">
            <mxPoint x="320" y="-710" as="targetPoint" />
            <Array as="points">
              <mxPoint x="360" y="-520" />
              <mxPoint x="360" y="-700" />
            </Array>
          </mxGeometry>
        </mxCell>
        <mxCell id="lQMvvRKDLv_ckQjSCARD-16" style="edgeStyle=orthogonalEdgeStyle;rounded=0;orthogonalLoop=1;jettySize=auto;html=1;entryX=0;entryY=0.5;entryDx=0;entryDy=0;" edge="1" parent="1" source="lQMvvRKDLv_ckQjSCARD-1" target="lQMvvRKDLv_ckQjSCARD-3">
          <mxGeometry relative="1" as="geometry">
            <Array as="points">
              <mxPoint x="-50" y="-520" />
              <mxPoint x="-50" y="-700" />
            </Array>
          </mxGeometry>
        </mxCell>
        <mxCell id="lQMvvRKDLv_ckQjSCARD-17" style="edgeStyle=orthogonalEdgeStyle;rounded=0;orthogonalLoop=1;jettySize=auto;html=1;entryX=0.75;entryY=1;entryDx=0;entryDy=0;" edge="1" parent="1" source="lQMvvRKDLv_ckQjSCARD-1" target="lQMvvRKDLv_ckQjSCARD-5">
          <mxGeometry relative="1" as="geometry">
            <Array as="points">
              <mxPoint x="280" y="-520" />
            </Array>
          </mxGeometry>
        </mxCell>
        <mxCell id="lQMvvRKDLv_ckQjSCARD-1" value="Settings page" style="rounded=0;whiteSpace=wrap;html=1;" vertex="1" parent="1">
          <mxGeometry x="90" y="-540" width="120" height="60" as="geometry" />
        </mxCell>
        <mxCell id="lQMvvRKDLv_ckQjSCARD-3" value="Personal information&amp;nbsp;" style="rounded=0;whiteSpace=wrap;html=1;" vertex="1" parent="1">
          <mxGeometry x="-10" y="-730" width="120" height="60" as="geometry" />
        </mxCell>
        <mxCell id="lQMvvRKDLv_ckQjSCARD-4" value="Password &amp;amp; Security" style="rounded=0;whiteSpace=wrap;html=1;" vertex="1" parent="1">
          <mxGeometry x="190" y="-730" width="120" height="60" as="geometry" />
        </mxCell>
        <mxCell id="lQMvvRKDLv_ckQjSCARD-5" value="Appearance" style="rounded=0;whiteSpace=wrap;html=1;" vertex="1" parent="1">
          <mxGeometry x="190" y="-630" width="120" height="60" as="geometry" />
        </mxCell>
        <mxCell id="lQMvvRKDLv_ckQjSCARD-6" value="Language" style="rounded=0;whiteSpace=wrap;html=1;" vertex="1" parent="1">
          <mxGeometry x="-10" y="-630" width="120" height="60" as="geometry" />
        </mxCell>
        <mxCell id="lQMvvRKDLv_ckQjSCARD-8" value="Log out button/field" style="rounded=0;whiteSpace=wrap;html=1;" vertex="1" parent="1">
          <mxGeometry x="90" y="-820" width="120" height="60" as="geometry" />
        </mxCell>
        <mxCell id="lQMvvRKDLv_ckQjSCARD-18" value="update password" style="text;html=1;strokeColor=none;fillColor=none;align=center;verticalAlign=middle;whiteSpace=wrap;rounded=0;" vertex="1" parent="1">
          <mxGeometry x="260" y="-770" width="60" height="30" as="geometry" />
        </mxCell>
        <mxCell id="lQMvvRKDLv_ckQjSCARD-20" value="update full name, email and phonenumber" style="text;html=1;strokeColor=none;fillColor=none;align=center;verticalAlign=middle;whiteSpace=wrap;rounded=0;" vertex="1" parent="1">
          <mxGeometry x="-80" y="-760" width="140" height="30" as="geometry" />
        </mxCell>
        <mxCell id="lQMvvRKDLv_ckQjSCARD-21" value="chnage language all over the app" style="text;html=1;strokeColor=none;fillColor=none;align=center;verticalAlign=middle;whiteSpace=wrap;rounded=0;" vertex="1" parent="1">
          <mxGeometry x="-20" y="-660" width="140" height="30" as="geometry" />
        </mxCell>
        <mxCell id="lQMvvRKDLv_ckQjSCARD-22" value="dark mode and other color settings" style="text;html=1;strokeColor=none;fillColor=none;align=center;verticalAlign=middle;whiteSpace=wrap;rounded=0;" vertex="1" parent="1">
          <mxGeometry x="170" y="-660" width="190" height="30" as="geometry" />
        </mxCell>
        <mxCell id="lQMvvRKDLv_ckQjSCARD-23" value="create a ticke to report a bug or a problem" style="text;html=1;strokeColor=none;fillColor=none;align=center;verticalAlign=middle;whiteSpace=wrap;rounded=0;" vertex="1" parent="1">
          <mxGeometry x="530" y="-220" width="130" height="40" as="geometry" />
        </mxCell>
        <mxCell id="lQMvvRKDLv_ckQjSCARD-27" style="edgeStyle=orthogonalEdgeStyle;rounded=0;orthogonalLoop=1;jettySize=auto;html=1;entryX=0;entryY=0.5;entryDx=0;entryDy=0;" edge="1" parent="1" source="lQMvvRKDLv_ckQjSCARD-24" target="lQMvvRKDLv_ckQjSCARD-26">
          <mxGeometry relative="1" as="geometry" />
        </mxCell>
        <mxCell id="lQMvvRKDLv_ckQjSCARD-24" value="email for account to reset password" style="rounded=0;whiteSpace=wrap;html=1;" vertex="1" parent="1">
          <mxGeometry x="570" y="30" width="120" height="60" as="geometry" />
        </mxCell>
        <mxCell id="lQMvvRKDLv_ckQjSCARD-29" style="edgeStyle=orthogonalEdgeStyle;rounded=0;orthogonalLoop=1;jettySize=auto;html=1;entryX=0.5;entryY=1;entryDx=0;entryDy=0;" edge="1" parent="1" source="lQMvvRKDLv_ckQjSCARD-26" target="lQMvvRKDLv_ckQjSCARD-28">
          <mxGeometry relative="1" as="geometry" />
        </mxCell>
        <mxCell id="lQMvvRKDLv_ckQjSCARD-26" value="verification code security check" style="rounded=0;whiteSpace=wrap;html=1;" vertex="1" parent="1">
          <mxGeometry x="750" y="30" width="120" height="60" as="geometry" />
        </mxCell>
        <mxCell id="lQMvvRKDLv_ckQjSCARD-31" style="edgeStyle=orthogonalEdgeStyle;rounded=0;orthogonalLoop=1;jettySize=auto;html=1;entryX=1;entryY=0.25;entryDx=0;entryDy=0;" edge="1" parent="1" source="lQMvvRKDLv_ckQjSCARD-28" target="TOOFElUS-FBpNHro3T_S-2">
          <mxGeometry relative="1" as="geometry">
            <Array as="points">
              <mxPoint x="910" y="-50" />
              <mxPoint x="910" y="235" />
            </Array>
          </mxGeometry>
        </mxCell>
        <mxCell id="lQMvvRKDLv_ckQjSCARD-28" value="update password for the account&amp;nbsp;" style="rounded=0;whiteSpace=wrap;html=1;" vertex="1" parent="1">
          <mxGeometry x="750" y="-80" width="120" height="60" as="geometry" />
        </mxCell>
        <mxCell id="lQMvvRKDLv_ckQjSCARD-37" value="Messages" style="rounded=0;whiteSpace=wrap;html=1;" vertex="1" parent="1">
          <mxGeometry x="-80" y="540" width="120" height="60" as="geometry" />
        </mxCell>
        <mxCell id="lQMvvRKDLv_ckQjSCARD-38" value="Connected" style="rounded=0;whiteSpace=wrap;html=1;" vertex="1" parent="1">
          <mxGeometry x="70" y="540" width="120" height="60" as="geometry" />
        </mxCell>
        <mxCell id="lQMvvRKDLv_ckQjSCARD-40" value="Team Builder" style="rounded=0;whiteSpace=wrap;html=1;" vertex="1" parent="1">
          <mxGeometry x="220" y="540" width="120" height="60" as="geometry" />
        </mxCell>
        <mxCell id="lQMvvRKDLv_ckQjSCARD-45" value="write people on the app" style="text;html=1;strokeColor=none;fillColor=none;align=center;verticalAlign=middle;whiteSpace=wrap;rounded=0;" vertex="1" parent="1">
          <mxGeometry x="-70" y="610" width="90" height="30" as="geometry" />
        </mxCell>
        <mxCell id="lQMvvRKDLv_ckQjSCARD-46" value="similar to a friends tab" style="text;html=1;strokeColor=none;fillColor=none;align=center;verticalAlign=middle;whiteSpace=wrap;rounded=0;" vertex="1" parent="1">
          <mxGeometry x="80" y="610" width="110" height="30" as="geometry" />
        </mxCell>
        <mxCell id="lQMvvRKDLv_ckQjSCARD-47" value="see and manage your network of people" style="text;html=1;strokeColor=none;fillColor=none;align=center;verticalAlign=middle;whiteSpace=wrap;rounded=0;" vertex="1" parent="1">
          <mxGeometry x="70" y="660" width="110" height="30" as="geometry" />
        </mxCell>
        <mxCell id="lQMvvRKDLv_ckQjSCARD-48" value="have a good overview over your team with varous features" style="text;html=1;strokeColor=none;fillColor=none;align=center;verticalAlign=middle;whiteSpace=wrap;rounded=0;" vertex="1" parent="1">
          <mxGeometry x="220" y="610" width="170" height="30" as="geometry" />
        </mxCell>
      </root>
    </mxGraphModel>
  </diagram>
</mxfile>
